<svg width="116" height="142" viewBox="0 0 116 142" fill="none" xmlns="http://www.w3.org/2000/svg">
<path d="M0.5 2C0.5 1.17157 1.17157 0.5 2 0.5C2.82843 0.5 3.5 1.17157 3.5 2L0.5 2ZM115.061 128.939C115.646 129.525 115.646 130.475 115.061 131.061L105.515 140.607C104.929 141.192 103.979 141.192 103.393 140.607C102.808 140.021 102.808 139.071 103.393 138.485L111.879 130L103.393 121.515C102.808 120.929 102.808 119.979 103.393 119.393C103.979 118.808 104.929 118.808 105.515 119.393L115.061 128.939ZM3.5 2L3.5 106H0.5L0.5 2L3.5 2ZM26 128.5H114V131.5H26V128.5ZM3.5 106C3.5 118.426 13.5736 128.5 26 128.5V131.5C11.9167 131.5 0.5 120.083 0.5 106H3.5Z" fill="#FAA41A"/>
</svg>
