<svg width="316" height="154" viewBox="0 0 316 154" fill="none" xmlns="http://www.w3.org/2000/svg">
<path d="M113.523 50.7913C113.523 48.5779 113.14 46.4922 112.374 44.5341C111.608 42.491 110.501 40.7032 109.054 39.1708C107.607 37.6384 105.862 36.404 103.818 35.4676C101.775 34.5311 99.4767 34.0629 96.9227 34.0629H41.7572C39.2884 34.0629 36.9898 34.4886 34.8615 35.3399C32.7332 36.1061 30.9029 37.2553 29.3705 38.7877C27.8381 40.3201 26.6037 42.193 25.6673 44.4064C24.816 46.5347 24.3903 48.961 24.3903 51.6852V72.8831C24.3903 75.437 24.816 77.7782 25.6673 79.9065C26.6037 81.9496 27.8381 83.7374 29.3705 85.2698C30.988 86.8021 32.8609 87.994 34.9892 88.8453C37.1175 89.6115 39.4161 89.9946 41.8849 89.9946H96.9227C98.8808 89.9946 100.839 89.5689 102.797 88.7176C104.84 87.8663 106.628 86.6744 108.16 85.1421C109.778 83.6097 111.055 81.7794 111.991 79.6511C113.013 77.5228 113.523 75.1816 113.523 72.6277H131.529V75.1816C131.529 79.1828 130.805 83.1415 129.358 87.0575C127.911 90.9736 125.868 94.5066 123.228 97.6565C120.675 100.721 117.567 103.233 113.907 105.191C110.246 107.064 106.202 108 101.775 108H34.9892C31.0732 108 27.3699 107.276 23.8795 105.829C20.3891 104.297 17.3244 102.254 14.6853 99.6996C12.1313 97.0605 10.0881 93.9958 8.55576 90.5054C7.10852 87.015 6.3849 83.3117 6.3849 79.3957V44.6618C6.3849 40.6606 7.10852 36.9574 8.55576 33.5521C10.0881 30.0617 12.1313 27.0395 14.6853 24.4856C17.3244 21.8465 20.3891 19.8033 23.8795 18.3561C27.3699 16.8237 31.0732 16.0575 34.9892 16.0575H101.775C106.202 16.0575 110.246 17.0365 113.907 18.9945C117.567 20.8674 120.675 23.3363 123.228 26.401C125.868 29.4658 127.911 32.9136 129.358 36.7446C130.805 40.5755 131.529 44.4064 131.529 48.2374V50.7913H113.523ZM248.953 48.2374C248.953 46.705 248.613 45.0875 247.932 43.3848C247.25 41.6822 246.229 40.1498 244.867 38.7877C243.505 37.4256 241.759 36.3189 239.631 35.4676C237.503 34.5311 235.034 34.0629 232.225 34.0629H173.101C171.228 34.0629 169.44 34.3183 167.737 34.8291C166.12 35.3399 164.672 36.1061 163.395 37.1277C162.118 38.0641 161.097 39.2559 160.331 40.7032C159.565 42.1504 159.181 43.8531 159.181 45.8111C159.181 51.3447 164.034 54.1115 173.739 54.1115H237.971C242.057 54.1115 245.846 54.6223 249.336 55.6438C252.827 56.6654 255.891 58.2404 258.53 60.3687C261.17 62.4118 263.213 65.0509 264.66 68.2859C266.192 71.4358 266.958 75.1391 266.958 79.3957C266.958 83.3117 266.192 87.015 264.66 90.5054C263.213 93.9958 261.17 97.0605 258.53 99.6996C255.976 102.254 252.954 104.297 249.464 105.829C246.059 107.276 242.355 108 238.354 108H171.568C167.141 108 163.098 107.064 159.437 105.191C155.861 103.233 152.754 100.721 150.115 97.6565C147.476 94.5917 145.433 91.1439 143.985 87.3129C142.538 83.482 141.815 79.6511 141.815 75.8201H159.82C159.82 77.3525 160.118 78.97 160.714 80.6726C161.31 82.2902 162.246 83.8225 163.523 85.2698C164.885 86.6319 166.63 87.7812 168.759 88.7176C170.972 89.5689 173.611 89.9946 176.676 89.9946H234.779C236.907 89.9946 238.865 89.6966 240.653 89.1007C242.44 88.4197 243.973 87.5683 245.25 86.5467C246.527 85.44 247.506 84.2056 248.187 82.8435C248.953 81.3963 249.336 79.9065 249.336 78.3741C249.336 75.1391 248.059 73.0533 245.505 72.1169C242.951 71.0953 239.376 70.5845 234.779 70.5845H171.951C168.035 70.5845 164.247 70.0737 160.586 69.0521C156.925 67.9454 153.69 66.3279 150.881 64.1996C148.157 61.9862 145.943 59.262 144.241 56.0269C142.623 52.7919 141.815 49.0036 141.815 44.6618C141.815 40.6606 142.538 36.9574 143.985 33.5521C145.518 30.0617 147.561 27.0395 150.115 24.4856C152.754 21.8465 155.819 19.8033 159.309 18.3561C162.8 16.8237 166.503 16.0575 170.419 16.0575H237.205C241.632 16.0575 245.676 17.0365 249.336 18.9945C252.997 20.8674 256.104 23.3363 258.658 26.401C261.297 29.4658 263.34 32.9136 264.788 36.7446C266.235 40.5755 266.958 44.4064 266.958 48.2374H248.953Z" fill="white"/>
<path d="M113.523 50.7913C113.523 48.5779 113.14 46.4922 112.374 44.5341C111.608 42.491 110.501 40.7032 109.054 39.1708C107.607 37.6384 105.862 36.404 103.818 35.4676C101.775 34.5311 99.4767 34.0629 96.9227 34.0629H41.7572C39.2884 34.0629 36.9898 34.4886 34.8615 35.3399C32.7332 36.1061 30.9029 37.2553 29.3705 38.7877C27.8381 40.3201 26.6037 42.193 25.6673 44.4064C24.816 46.5347 24.3903 48.961 24.3903 51.6852V72.8831C24.3903 75.437 24.816 77.7782 25.6673 79.9065C26.6037 81.9496 27.8381 83.7374 29.3705 85.2698C30.988 86.8021 32.8609 87.994 34.9892 88.8453C37.1175 89.6115 39.4161 89.9946 41.8849 89.9946H96.9227C98.8808 89.9946 100.839 89.5689 102.797 88.7176C104.84 87.8663 106.628 86.6744 108.16 85.1421C109.778 83.6097 111.055 81.7794 111.991 79.6511C113.013 77.5228 113.523 75.1816 113.523 72.6277H131.529V75.1816C131.529 79.1828 130.805 83.1415 129.358 87.0575C127.911 90.9736 125.868 94.5066 123.228 97.6565C120.675 100.721 117.567 103.233 113.907 105.191C110.246 107.064 106.202 108 101.775 108H34.9892C31.0732 108 27.3699 107.276 23.8795 105.829C20.3891 104.297 17.3244 102.254 14.6853 99.6996C12.1313 97.0605 10.0881 93.9958 8.55576 90.5054C7.10852 87.015 6.3849 83.3117 6.3849 79.3957V44.6618C6.3849 40.6606 7.10852 36.9574 8.55576 33.5521C10.0881 30.0617 12.1313 27.0395 14.6853 24.4856C17.3244 21.8465 20.3891 19.8033 23.8795 18.3561C27.3699 16.8237 31.0732 16.0575 34.9892 16.0575H101.775C106.202 16.0575 110.246 17.0365 113.907 18.9945C117.567 20.8674 120.675 23.3363 123.228 26.401C125.868 29.4658 127.911 32.9136 129.358 36.7446C130.805 40.5755 131.529 44.4064 131.529 48.2374V50.7913H113.523ZM248.953 48.2374C248.953 46.705 248.613 45.0875 247.932 43.3848C247.25 41.6822 246.229 40.1498 244.867 38.7877C243.505 37.4256 241.759 36.3189 239.631 35.4676C237.503 34.5311 235.034 34.0629 232.225 34.0629H173.101C171.228 34.0629 169.44 34.3183 167.737 34.8291C166.12 35.3399 164.672 36.1061 163.395 37.1277C162.118 38.0641 161.097 39.2559 160.331 40.7032C159.565 42.1504 159.181 43.8531 159.181 45.8111C159.181 51.3447 164.034 54.1115 173.739 54.1115H237.971C242.057 54.1115 245.846 54.6223 249.336 55.6438C252.827 56.6654 255.891 58.2404 258.53 60.3687C261.17 62.4118 263.213 65.0509 264.66 68.2859C266.192 71.4358 266.958 75.1391 266.958 79.3957C266.958 83.3117 266.192 87.015 264.66 90.5054C263.213 93.9958 261.17 97.0605 258.53 99.6996C255.976 102.254 252.954 104.297 249.464 105.829C246.059 107.276 242.355 108 238.354 108H171.568C167.141 108 163.098 107.064 159.437 105.191C155.861 103.233 152.754 100.721 150.115 97.6565C147.476 94.5917 145.433 91.1439 143.985 87.3129C142.538 83.482 141.815 79.6511 141.815 75.8201H159.82C159.82 77.3525 160.118 78.97 160.714 80.6726C161.31 82.2902 162.246 83.8225 163.523 85.2698C164.885 86.6319 166.63 87.7812 168.759 88.7176C170.972 89.5689 173.611 89.9946 176.676 89.9946H234.779C236.907 89.9946 238.865 89.6966 240.653 89.1007C242.44 88.4197 243.973 87.5683 245.25 86.5467C246.527 85.44 247.506 84.2056 248.187 82.8435C248.953 81.3963 249.336 79.9065 249.336 78.3741C249.336 75.1391 248.059 73.0533 245.505 72.1169C242.951 71.0953 239.376 70.5845 234.779 70.5845H171.951C168.035 70.5845 164.247 70.0737 160.586 69.0521C156.925 67.9454 153.69 66.3279 150.881 64.1996C148.157 61.9862 145.943 59.262 144.241 56.0269C142.623 52.7919 141.815 49.0036 141.815 44.6618C141.815 40.6606 142.538 36.9574 143.985 33.5521C145.518 30.0617 147.561 27.0395 150.115 24.4856C152.754 21.8465 155.819 19.8033 159.309 18.3561C162.8 16.8237 166.503 16.0575 170.419 16.0575H237.205C241.632 16.0575 245.676 17.0365 249.336 18.9945C252.997 20.8674 256.104 23.3363 258.658 26.401C261.297 29.4658 263.34 32.9136 264.788 36.7446C266.235 40.5755 266.958 44.4064 266.958 48.2374H248.953Z" fill="white"/>
</svg>
