<svg width="1260" height="69" viewBox="0 0 1260 69" fill="none" xmlns="http://www.w3.org/2000/svg">
<path d="M70.2913 27.0812V0.746169H85.8101V68.4648H70.2913V42.6001H15.7401V68.4648H0.22124V0.746169H15.7401V27.0812H70.2913ZM194.112 68.4648H176.242L168.059 55.7676H116.8L108.806 68.4648H90.9353L132.507 0.746169H152.446L194.112 68.4648ZM141.536 16.265L125.923 40.2487H159.218L143.511 16.265H141.536ZM268.381 26.3288C268.381 25.012 268.13 23.758 267.628 22.5666C267.19 21.3126 266.5 20.2466 265.559 19.3688C264.681 18.4283 263.584 17.6758 262.267 17.1115C261.013 16.5472 259.54 16.265 257.847 16.265H218.532C215.335 16.265 212.638 17.2996 210.444 19.3688C208.312 21.438 207.246 24.1969 207.246 27.6455V41.8476C207.246 43.4779 207.528 44.9828 208.092 46.3622C208.719 47.679 209.535 48.839 210.538 49.8422C211.541 50.8454 212.732 51.6292 214.112 52.1936C215.491 52.6952 216.965 52.946 218.532 52.946H257.847C259.164 52.946 260.449 52.6952 261.703 52.1936C262.957 51.6292 264.086 50.8768 265.089 49.9363C266.092 48.9957 266.876 47.8984 267.44 46.6444C268.067 45.3276 268.381 43.9168 268.381 42.412H283.9V44.293C283.9 47.2401 283.367 50.1557 282.301 53.04C281.235 55.9243 279.73 58.5265 277.786 60.8465C275.905 63.1038 273.617 64.9535 270.92 66.3957C268.224 67.7751 265.246 68.4648 261.985 68.4648H212.795C209.911 68.4648 207.183 67.9319 204.612 66.8659C202.042 65.7373 199.784 64.2324 197.841 62.3514C195.96 60.4076 194.455 58.1503 193.326 55.5795C192.26 53.0087 191.727 50.2811 191.727 47.3968V21.8142C191.727 18.8672 192.26 16.1396 193.326 13.6315C194.455 11.0607 195.96 8.83479 197.841 6.95371C199.784 5.00993 202.042 3.50508 204.612 2.43914C207.183 1.31049 209.911 0.746169 212.795 0.746169H261.985C265.246 0.746169 268.224 1.46725 270.92 2.9094C273.617 4.28886 275.905 6.10723 277.786 8.36452C279.73 10.6218 281.235 13.1613 282.301 15.9829C283.367 18.8045 283.9 21.6261 283.9 24.4477V26.3288H268.381ZM364.157 0.746169H392.655L340.455 34.6996L392.655 68.4648H364.063L323.996 42.412H308.853V68.4648H293.335V0.746169H308.853V26.8931H323.996L364.157 0.746169ZM400.225 0.746169H485.344V16.265H415.744V26.8931H483.086V42.3179H415.744V52.946H485.344V68.4648H400.225V0.746169ZM581.854 68.4648H562.949L549.499 48.9017H509.338V68.4648H493.82V0.746169H561.914C564.861 0.746169 567.589 1.27914 570.097 2.34508C572.668 3.41102 574.894 4.82183 576.775 6.5775C578.719 8.33317 580.224 10.371 581.289 12.691C582.418 14.9483 582.982 17.2683 582.982 19.651V29.5266C582.982 31.5331 582.544 33.5709 581.666 35.6401C580.851 37.7093 579.722 39.6217 578.28 41.3774C576.9 43.133 575.27 44.6379 573.389 45.892C571.571 47.0833 569.69 47.8671 567.746 48.2433L581.854 68.4648ZM567.464 25.7645V23.5072C567.464 21.5007 566.648 19.8077 565.018 18.4283C563.388 16.9861 561.225 16.265 558.528 16.265H509.338V33.3828H558.528C561.664 33.3828 563.921 32.599 565.3 31.0315C566.743 29.4012 567.464 27.6455 567.464 25.7645ZM590.537 0.746169H681.111V15.9829L619.976 52.946H681.111V68.4648H590.537V53.1341L651.578 16.265H590.537V0.746169ZM766.296 24.4477C766.296 23.4445 766.077 22.4726 765.638 21.532C765.199 20.5288 764.54 19.651 763.663 18.8985C762.847 18.0834 761.781 17.4564 760.465 17.0175C759.148 16.5158 757.58 16.265 755.762 16.265H712.779C710.585 16.265 708.672 16.8294 707.042 17.958C705.475 19.0239 704.691 20.6542 704.691 22.8488C704.691 24.4164 705.412 25.6391 706.854 26.5169C708.296 27.332 710.365 27.7396 713.062 27.7396H760.465C763.474 27.7396 766.265 28.1785 768.835 29.0563C771.406 29.9342 773.664 31.2196 775.607 32.9125C777.551 34.5428 779.056 36.5806 780.122 39.026C781.251 41.4714 781.815 44.2617 781.815 47.3968C781.815 50.2811 781.251 53.0087 780.122 55.5795C779.056 58.1503 777.551 60.4076 775.607 62.3514C773.726 64.2324 771.5 65.7373 768.93 66.8659C766.421 67.9319 763.694 68.4648 760.747 68.4648H711.557C708.296 68.4648 705.318 67.7751 702.622 66.3957C699.988 64.9535 697.7 63.1038 695.756 60.8465C693.812 58.5892 692.307 56.0498 691.241 53.2281C690.175 50.4065 689.642 47.5849 689.642 44.7633H705.161C705.161 45.7038 705.349 46.6757 705.725 47.679C706.164 48.6195 706.791 49.4973 707.607 50.3125C708.484 51.0649 709.582 51.6919 710.898 52.1936C712.278 52.6952 713.908 52.946 715.789 52.946H757.831C759.023 52.946 760.151 52.7892 761.217 52.4757C762.283 52.0995 763.192 51.6292 763.945 51.0649C764.76 50.5006 765.387 49.8422 765.826 49.0898C766.327 48.2746 766.578 47.4282 766.578 46.5503C766.578 44.6066 765.794 43.3525 764.227 42.7882C762.659 42.2239 760.527 41.9417 757.831 41.9417H711.463C708.578 41.9417 705.788 41.5028 703.092 40.6249C700.458 39.6844 698.138 38.3677 696.132 36.6747C694.188 34.9817 692.621 32.8812 691.429 30.3731C690.238 27.865 689.642 25.012 689.642 21.8142C689.642 18.8672 690.175 16.1396 691.241 13.6315C692.37 11.0607 693.875 8.83479 695.756 6.95371C697.7 5.00993 699.957 3.50508 702.528 2.43914C705.098 1.31049 707.826 0.746169 710.71 0.746169H759.9C763.161 0.746169 766.139 1.46725 768.835 2.9094C771.532 4.28886 773.82 6.10723 775.701 8.36452C777.645 10.6218 779.15 13.1613 780.216 15.9829C781.282 18.8045 781.815 21.6261 781.815 24.4477H766.296ZM876.835 0.746169V16.265H839.213V68.4648H823.695V16.265H786.543V0.746169H876.835ZM973.316 68.4648H954.411L940.961 48.9017H900.8V68.4648H885.281V0.746169H953.376C956.323 0.746169 959.051 1.27914 961.559 2.34508C964.13 3.41102 966.356 4.82183 968.237 6.5775C970.181 8.33317 971.685 10.371 972.751 12.691C973.88 14.9483 974.444 17.2683 974.444 19.651V29.5266C974.444 31.5331 974.005 33.5709 973.128 35.6401C972.312 37.7093 971.184 39.6217 969.742 41.3774C968.362 43.133 966.732 44.6379 964.851 45.892C963.032 47.0833 961.151 47.8671 959.208 48.2433L973.316 68.4648ZM958.925 25.7645V23.5072C958.925 21.5007 958.11 19.8077 956.48 18.4283C954.85 16.9861 952.687 16.265 949.99 16.265H900.8V33.3828H949.99C953.125 33.3828 955.383 32.599 956.762 31.0315C958.204 29.4012 958.925 27.6455 958.925 25.7645ZM982.917 0.746169H1068.04V16.265H998.436V26.8931H1065.78V42.3179H998.436V52.946H1068.04V68.4648H982.917V0.746169ZM1076.51 0.746169H1161.63V16.265H1092.03V26.8931H1159.37V42.3179H1092.03V52.946H1161.63V68.4648H1076.51V0.746169ZM1259.48 0.746169V16.265H1221.86V68.4648H1206.34V16.265H1169.19V0.746169H1259.48Z" fill="white"/>
</svg>
