<svg width="264" height="86" viewBox="0 0 264 86" fill="none" xmlns="http://www.w3.org/2000/svg">
<path d="M28.4971 14.228V4.19131H34.4116V30H28.4971V20.1425H7.70676V30H1.79227V4.19131H7.70676V14.228H28.4971ZM75.6873 30H68.8767L65.7581 25.1609H46.2224L43.1755 30H36.3649L52.2085 4.19131H59.8078L75.6873 30ZM55.6497 10.1058L49.6994 19.2464H62.3886L56.4025 10.1058H55.6497ZM103.992 13.9413C103.992 13.4394 103.897 12.9615 103.706 12.5074C103.538 12.0295 103.275 11.6233 102.917 11.2887C102.582 10.9302 102.164 10.6435 101.662 10.4284C101.184 10.2133 100.623 10.1058 99.9776 10.1058H84.9942C83.7755 10.1058 82.7479 10.5001 81.9115 11.2887C81.099 12.0773 80.6928 13.1288 80.6928 14.4431V19.8558C80.6928 20.4771 80.8003 21.0506 81.0154 21.5763C81.2543 22.0782 81.565 22.5203 81.9473 22.9026C82.3297 23.285 82.7837 23.5837 83.3095 23.7987C83.8352 23.9899 84.3968 24.0855 84.9942 24.0855H99.9776C100.479 24.0855 100.969 23.9899 101.447 23.7987C101.925 23.5837 102.355 23.2969 102.738 22.9385C103.12 22.58 103.419 22.1618 103.634 21.6839C103.873 21.182 103.992 20.6444 103.992 20.0708H109.907V20.7877C109.907 21.9109 109.704 23.0221 109.297 24.1214C108.891 25.2206 108.318 26.2123 107.577 27.0965C106.86 27.9568 105.988 28.6618 104.96 29.2114C103.933 29.7371 102.797 30 101.555 30H82.8076C81.7084 30 80.6689 29.7969 79.6891 29.3906C78.7093 28.9605 77.849 28.387 77.1082 27.67C76.3913 26.9292 75.8178 26.069 75.3876 25.0892C74.9814 24.1094 74.7783 23.0699 74.7783 21.9706V12.2207C74.7783 11.0975 74.9814 10.058 75.3876 9.10213C75.8178 8.12236 76.3913 7.27402 77.1082 6.55711C77.849 5.8163 78.7093 5.24278 79.6891 4.83653C80.6689 4.40638 81.7084 4.19131 82.8076 4.19131H101.555C102.797 4.19131 103.933 4.46613 104.96 5.01576C105.988 5.54149 106.86 6.2345 107.577 7.09479C108.318 7.95508 108.891 8.9229 109.297 9.99827C109.704 11.0736 109.907 12.149 109.907 13.2244V13.9413H103.992ZM140.494 4.19131H151.355L131.461 17.1315L151.355 30H140.458L125.188 20.0708H119.417V30H113.502V4.19131H119.417V14.1563H125.188L140.494 4.19131ZM154.24 4.19131H186.68V10.1058H160.155V14.1563H185.82V20.035H160.155V24.0855H186.68V30H154.24V4.19131ZM223.462 30H216.257L211.131 22.5442H195.825V30H189.911V4.19131H215.863C216.986 4.19131 218.025 4.39444 218.981 4.80068C219.961 5.20693 220.809 5.74461 221.526 6.41373C222.267 7.08284 222.841 7.85949 223.247 8.74368C223.677 9.60397 223.892 10.4882 223.892 11.3962V15.16C223.892 15.9247 223.725 16.7014 223.39 17.49C223.08 18.2786 222.649 19.0074 222.1 19.6765C221.574 20.3456 220.953 20.9192 220.236 21.3971C219.543 21.8511 218.826 22.1499 218.085 22.2932L223.462 30ZM217.978 13.7262V12.8659C217.978 12.1012 217.667 11.456 217.046 10.9302C216.424 10.3806 215.6 10.1058 214.572 10.1058H195.825V16.6297H214.572C215.767 16.6297 216.627 16.331 217.153 15.7335C217.703 15.1122 217.978 14.4431 217.978 13.7262ZM226.771 4.19131H261.29V9.99827L237.991 24.0855H261.29V30H226.771V24.1572L250.035 10.1058H226.771V4.19131ZM31.0063 56.2244C31.0063 55.842 30.9226 55.4716 30.7554 55.1131C30.5881 54.7308 30.3372 54.3962 30.0026 54.1095C29.6919 53.7988 29.2857 53.5598 28.7839 53.3926C28.282 53.2014 27.6846 53.1058 26.9916 53.1058H10.6102C9.77385 53.1058 9.04499 53.3209 8.42367 53.751C7.82625 54.1573 7.52753 54.7786 7.52753 55.615C7.52753 56.2124 7.80235 56.6784 8.35198 57.013C8.90161 57.3236 9.69021 57.4789 10.7178 57.4789H28.7839C29.9309 57.4789 30.9943 57.6462 31.9741 57.9808C32.9539 58.3153 33.8142 58.8052 34.555 59.4504C35.2958 60.0718 35.8693 60.8484 36.2755 61.7804C36.7057 62.7124 36.9208 63.7758 36.9208 64.9706C36.9208 66.0699 36.7057 67.1094 36.2755 68.0892C35.8693 69.069 35.2958 69.9292 34.555 70.67C33.8381 71.387 32.9897 71.9605 32.0099 72.3906C31.0541 72.7969 30.0145 73 28.8914 73H10.1442C8.90161 73 7.7665 72.7371 6.73894 72.2114C5.73526 71.6618 4.86303 70.9568 4.12222 70.0965C3.38142 69.2362 2.80789 68.2684 2.40164 67.193C1.99539 66.1177 1.79227 65.0423 1.79227 63.967H7.70676C7.70676 64.3254 7.77845 64.6958 7.92183 65.0782C8.08911 65.4366 8.32808 65.7712 8.63874 66.0818C8.9733 66.3686 9.3915 66.6076 9.89333 66.7987C10.4191 66.9899 11.0404 67.0855 11.7573 67.0855H27.7802C28.2342 67.0855 28.6644 67.0258 29.0706 66.9063C29.4769 66.7629 29.8234 66.5837 30.1101 66.3686C30.4208 66.1535 30.6598 65.9026 30.827 65.6158C31.0182 65.3052 31.1138 64.9826 31.1138 64.648C31.1138 63.9072 30.8151 63.4293 30.2177 63.2142C29.6202 62.9991 28.8078 62.8916 27.7802 62.8916H10.1084C9.00914 62.8916 7.94573 62.7243 6.91816 62.3898C5.91449 62.0313 5.0303 61.5295 4.2656 60.8843C3.5248 60.239 2.92737 59.4385 2.47333 58.4826C2.01929 57.5267 1.79227 56.4394 1.79227 55.2207C1.79227 54.0975 1.99539 53.058 2.40164 52.1021C2.83179 51.1224 3.40531 50.274 4.12222 49.5571C4.86303 48.8163 5.72332 48.2428 6.70309 47.8365C7.68286 47.4064 8.72238 47.1913 9.82164 47.1913H28.5688C29.8114 47.1913 30.9465 47.4661 31.9741 48.0158C33.0017 48.5415 33.8739 49.2345 34.5908 50.0948C35.3316 50.9551 35.9051 51.9229 36.3114 52.9983C36.7176 54.0736 36.9208 55.149 36.9208 56.2244H31.0063ZM73.1344 47.1913V53.1058H58.7963V73H52.8818V53.1058H38.7228V47.1913H73.1344ZM109.905 73H102.7L97.574 65.5442H82.268V73H76.3535V47.1913H102.306C103.429 47.1913 104.468 47.3944 105.424 47.8007C106.404 48.2069 107.252 48.7446 107.969 49.4137C108.71 50.0828 109.283 50.8595 109.69 51.7437C110.12 52.604 110.335 53.4882 110.335 54.3962V58.16C110.335 58.9247 110.168 59.7014 109.833 60.49C109.522 61.2786 109.092 62.0074 108.543 62.6765C108.017 63.3456 107.396 63.9192 106.679 64.3971C105.986 64.8511 105.269 65.1499 104.528 65.2932L109.905 73ZM104.42 56.7262V55.8659C104.42 55.1012 104.11 54.456 103.488 53.9302C102.867 53.3806 102.043 53.1058 101.015 53.1058H82.268V59.6297H101.015C102.21 59.6297 103.07 59.331 103.596 58.7335C104.146 58.1122 104.42 57.4431 104.42 56.7262ZM113.564 47.1913H146.004V53.1058H119.479V57.1563H145.144V63.035H119.479V67.0855H146.004V73H113.564V47.1913ZM149.234 47.1913H181.675V53.1058H155.149V57.1563H180.814V63.035H155.149V67.0855H181.675V73H149.234V47.1913ZM218.966 47.1913V53.1058H204.628V73H198.714V53.1058H184.555V47.1913H218.966Z" fill="white"/>
<g style="mix-blend-mode:soft-light">
<path d="M225.777 63.8737C226.16 63.4492 226.662 63.1696 227.283 63.035C227.904 62.8901 228.702 62.8176 229.675 62.8176H237.518C238.005 62.8176 238.455 62.8952 238.869 63.0505C239.294 63.2059 239.661 63.4285 239.972 63.7184C240.293 64.0083 240.542 64.35 240.718 64.7434C240.904 65.1369 240.997 65.5769 240.997 66.0636V66.3121C240.997 66.6538 240.945 66.954 240.842 67.2129C240.738 67.4614 240.604 67.6736 240.438 67.8497C240.272 68.0153 240.086 68.1448 239.879 68.2379C239.672 68.3311 239.465 68.3933 239.258 68.4243C239.465 68.4554 239.672 68.5227 239.879 68.6262C240.086 68.7194 240.272 68.854 240.438 69.03C240.604 69.1957 240.738 69.3976 240.842 69.6357C240.945 69.8739 240.997 70.1483 240.997 70.4589V70.6608C240.997 71.1371 240.904 71.5823 240.718 71.9965C240.542 72.4003 240.293 72.7523 239.972 73.0526C239.661 73.3529 239.294 73.5858 238.869 73.7515C238.455 73.9172 238.005 74 237.518 74H229.706C229.199 74 228.743 73.9689 228.339 73.9068C227.946 73.8447 227.589 73.7619 227.268 73.6583C226.947 73.5548 226.662 73.4305 226.413 73.2856C226.175 73.1303 225.963 72.9698 225.777 72.8041V70.5831C225.973 70.7385 226.191 70.8938 226.429 71.0491C226.677 71.194 226.957 71.3235 227.268 71.4374C227.589 71.5513 227.946 71.6444 228.339 71.7169C228.743 71.779 229.199 71.8101 229.706 71.8101H237.254C237.565 71.8101 237.824 71.748 238.031 71.6237C238.248 71.4995 238.414 71.3442 238.528 71.1578C238.652 70.9714 238.714 70.7695 238.714 70.5521C238.724 70.3346 238.678 70.1327 238.574 69.9464C238.481 69.76 238.321 69.6047 238.093 69.4804C237.875 69.3562 237.596 69.2941 237.254 69.2941H230.7V67.508H237.254C237.792 67.508 238.186 67.3786 238.434 67.1197C238.683 66.8608 238.802 66.5761 238.792 66.2655C238.781 65.9445 238.642 65.6546 238.372 65.3957C238.113 65.1369 237.736 65.0075 237.239 65.0075H229.675C228.702 65.0075 227.904 65.0799 227.283 65.2249C226.662 65.3699 226.16 65.6287 225.777 66.0015V63.8737ZM243.099 74V72.012H245.739V74H243.099ZM258.953 74H251.157C250.68 74 250.23 73.912 249.805 73.736C249.391 73.5496 249.024 73.3011 248.703 72.9905C248.392 72.6695 248.143 72.3019 247.957 71.8878C247.781 71.4632 247.693 71.0128 247.693 70.5366V66.281C247.693 65.8047 247.781 65.3595 247.957 64.9453C248.143 64.5208 248.392 64.1533 248.703 63.8426C249.024 63.5217 249.391 63.2732 249.805 63.0971C250.23 62.9108 250.68 62.8176 251.157 62.8176H258.953C259.429 62.8176 259.875 62.9108 260.289 63.0971C260.713 63.2732 261.081 63.5217 261.392 63.8426C261.713 64.1533 261.961 64.5208 262.137 64.9453C262.323 65.3595 262.417 65.8047 262.417 66.281V70.5366C262.417 71.0128 262.323 71.4632 262.137 71.8878C261.961 72.3019 261.713 72.6695 261.392 72.9905C261.081 73.3011 260.713 73.5496 260.289 73.736C259.875 73.912 259.429 74 258.953 74ZM252.461 71.8101L255.785 65.0075H251.949C251.659 65.0075 251.384 65.0592 251.125 65.1628C250.877 65.2663 250.66 65.4113 250.473 65.5976C250.287 65.784 250.142 66.0015 250.038 66.25C249.935 66.4985 249.883 66.7677 249.883 67.0576V69.76C249.883 70.0499 249.935 70.3191 250.038 70.5676C250.142 70.8161 250.287 71.0336 250.473 71.2199C250.66 71.4063 250.877 71.5513 251.125 71.6548C251.374 71.7583 251.643 71.8101 251.933 71.8101H252.461ZM260.227 69.76V67.1197C260.227 66.8194 260.17 66.545 260.056 66.2965C259.952 66.0377 259.802 65.8151 259.605 65.6287C259.419 65.432 259.196 65.2818 258.938 65.1783C258.689 65.0644 258.415 65.0075 258.114 65.0075H257.649L254.325 71.8101H258.177C258.467 71.8101 258.736 71.7583 258.984 71.6548C259.233 71.5513 259.45 71.4063 259.637 71.2199C259.823 71.0336 259.968 70.8161 260.071 70.5676C260.175 70.3191 260.227 70.0499 260.227 69.76Z" fill="white"/>
</g>
<g style="mix-blend-mode:soft-light">
<path d="M225.777 63.8737C226.16 63.4492 226.662 63.1696 227.283 63.035C227.904 62.8901 228.702 62.8176 229.675 62.8176H237.518C238.005 62.8176 238.455 62.8952 238.869 63.0505C239.294 63.2059 239.661 63.4285 239.972 63.7184C240.293 64.0083 240.542 64.35 240.718 64.7434C240.904 65.1369 240.997 65.5769 240.997 66.0636V66.3121C240.997 66.6538 240.945 66.954 240.842 67.2129C240.738 67.4614 240.604 67.6736 240.438 67.8497C240.272 68.0153 240.086 68.1448 239.879 68.2379C239.672 68.3311 239.465 68.3933 239.258 68.4243C239.465 68.4554 239.672 68.5227 239.879 68.6262C240.086 68.7194 240.272 68.854 240.438 69.03C240.604 69.1957 240.738 69.3976 240.842 69.6357C240.945 69.8739 240.997 70.1483 240.997 70.4589V70.6608C240.997 71.1371 240.904 71.5823 240.718 71.9965C240.542 72.4003 240.293 72.7523 239.972 73.0526C239.661 73.3529 239.294 73.5858 238.869 73.7515C238.455 73.9172 238.005 74 237.518 74H229.706C229.199 74 228.743 73.9689 228.339 73.9068C227.946 73.8447 227.589 73.7619 227.268 73.6583C226.947 73.5548 226.662 73.4305 226.413 73.2856C226.175 73.1303 225.963 72.9698 225.777 72.8041V70.5831C225.973 70.7385 226.191 70.8938 226.429 71.0491C226.677 71.194 226.957 71.3235 227.268 71.4374C227.589 71.5513 227.946 71.6444 228.339 71.7169C228.743 71.779 229.199 71.8101 229.706 71.8101H237.254C237.565 71.8101 237.824 71.748 238.031 71.6237C238.248 71.4995 238.414 71.3442 238.528 71.1578C238.652 70.9714 238.714 70.7695 238.714 70.5521C238.724 70.3346 238.678 70.1327 238.574 69.9464C238.481 69.76 238.321 69.6047 238.093 69.4804C237.875 69.3562 237.596 69.2941 237.254 69.2941H230.7V67.508H237.254C237.792 67.508 238.186 67.3786 238.434 67.1197C238.683 66.8608 238.802 66.5761 238.792 66.2655C238.781 65.9445 238.642 65.6546 238.372 65.3957C238.113 65.1369 237.736 65.0075 237.239 65.0075H229.675C228.702 65.0075 227.904 65.0799 227.283 65.2249C226.662 65.3699 226.16 65.6287 225.777 66.0015V63.8737ZM243.099 74V72.012H245.739V74H243.099ZM258.953 74H251.157C250.68 74 250.23 73.912 249.805 73.736C249.391 73.5496 249.024 73.3011 248.703 72.9905C248.392 72.6695 248.143 72.3019 247.957 71.8878C247.781 71.4632 247.693 71.0128 247.693 70.5366V66.281C247.693 65.8047 247.781 65.3595 247.957 64.9453C248.143 64.5208 248.392 64.1533 248.703 63.8426C249.024 63.5217 249.391 63.2732 249.805 63.0971C250.23 62.9108 250.68 62.8176 251.157 62.8176H258.953C259.429 62.8176 259.875 62.9108 260.289 63.0971C260.713 63.2732 261.081 63.5217 261.392 63.8426C261.713 64.1533 261.961 64.5208 262.137 64.9453C262.323 65.3595 262.417 65.8047 262.417 66.281V70.5366C262.417 71.0128 262.323 71.4632 262.137 71.8878C261.961 72.3019 261.713 72.6695 261.392 72.9905C261.081 73.3011 260.713 73.5496 260.289 73.736C259.875 73.912 259.429 74 258.953 74ZM252.461 71.8101L255.785 65.0075H251.949C251.659 65.0075 251.384 65.0592 251.125 65.1628C250.877 65.2663 250.66 65.4113 250.473 65.5976C250.287 65.784 250.142 66.0015 250.038 66.25C249.935 66.4985 249.883 66.7677 249.883 67.0576V69.76C249.883 70.0499 249.935 70.3191 250.038 70.5676C250.142 70.8161 250.287 71.0336 250.473 71.2199C250.66 71.4063 250.877 71.5513 251.125 71.6548C251.374 71.7583 251.643 71.8101 251.933 71.8101H252.461ZM260.227 69.76V67.1197C260.227 66.8194 260.17 66.545 260.056 66.2965C259.952 66.0377 259.802 65.8151 259.605 65.6287C259.419 65.432 259.196 65.2818 258.938 65.1783C258.689 65.0644 258.415 65.0075 258.114 65.0075H257.649L254.325 71.8101H258.177C258.467 71.8101 258.736 71.7583 258.984 71.6548C259.233 71.5513 259.45 71.4063 259.637 71.2199C259.823 71.0336 259.968 70.8161 260.071 70.5676C260.175 70.3191 260.227 70.0499 260.227 69.76Z" fill="white"/>
</g>
</svg>
