<svg width="53" height="56" viewBox="0 0 53 56" fill="none" xmlns="http://www.w3.org/2000/svg">
<rect x="0.5" y="0.5" width="51.6615" height="54.1727" rx="17.2473" stroke="white"/>
<path d="M31.0889 18H21.971C19.4531 18 17.412 20.2386 17.412 23V33C17.412 35.7614 19.4531 38 21.971 38H31.0889C33.6067 38 35.6479 35.7614 35.6479 33V23C35.6479 20.2386 33.6067 18 31.0889 18Z" stroke="white" stroke-width="2" stroke-linecap="round" stroke-linejoin="round"/>
<path d="M30.1776 27.3703C30.2902 28.2025 30.1605 29.0525 29.8072 29.7993C29.4539 30.5461 28.8949 31.1517 28.2096 31.53C27.5244 31.9082 26.7479 32.0399 25.9905 31.9062C25.2331 31.7726 24.5334 31.3804 23.991 30.7855C23.4485 30.1905 23.0909 29.4232 22.9691 28.5925C22.8472 27.7619 22.9672 26.9102 23.3121 26.1587C23.657 25.4072 24.2092 24.794 24.8901 24.4065C25.5711 24.019 26.3461 23.8769 27.1049 24.0003C27.8789 24.1262 28.5955 24.5218 29.1489 25.1286C29.7022 25.7355 30.0629 26.5214 30.1776 27.3703Z" stroke="white" stroke-width="2" stroke-linecap="round" stroke-linejoin="round"/>
<path d="M31.5448 22.5H31.5537" stroke="white" stroke-width="2" stroke-linecap="round" stroke-linejoin="round"/>
</svg>
