<svg width="54" height="56" viewBox="0 0 54 56" fill="none" xmlns="http://www.w3.org/2000/svg">
<rect x="1.2793" y="0.5" width="51.6615" height="54.1727" rx="17.2473" stroke="white"/>
<path d="M31.3516 24C32.8026 24 34.1941 24.6321 35.22 25.7574C36.246 26.8826 36.8224 28.4087 36.8224 30V37H33.1752V30C33.1752 29.4696 32.9831 28.9609 32.6411 28.5858C32.2991 28.2107 31.8353 28 31.3516 28C30.868 28 30.4041 28.2107 30.0622 28.5858C29.7202 28.9609 29.528 29.4696 29.528 30V37H25.8809V30C25.8809 28.4087 26.4572 26.8826 27.4832 25.7574C28.5092 24.6321 29.9007 24 31.3516 24Z" fill="white" stroke="white" stroke-width="1.5" stroke-linecap="round" stroke-linejoin="round"/>
<path d="M22.2334 25H18.5862V37H22.2334V25Z" fill="white" stroke="white" stroke-width="1.5" stroke-linecap="round" stroke-linejoin="round"/>
<path d="M20.4098 22C21.4169 22 22.2334 21.1046 22.2334 20C22.2334 18.8954 21.4169 18 20.4098 18C19.4026 18 18.5862 18.8954 18.5862 20C18.5862 21.1046 19.4026 22 20.4098 22Z" fill="white" stroke="white" stroke-width="1.5" stroke-linecap="round" stroke-linejoin="round"/>
</svg>
