<svg width="197" height="96" viewBox="0 0 197 96" fill="none" xmlns="http://www.w3.org/2000/svg">
<g style="mix-blend-mode:soft-light">
<path d="M3.99201 15.9442C5.9614 13.7619 8.54289 12.3248 11.7365 11.6329C14.9301 10.8877 19.0286 10.5151 24.0319 10.5151H64.3512C66.8528 10.5151 69.1682 10.9143 71.2972 11.7127C73.4795 12.5111 75.3691 13.6555 76.9659 15.1458C78.6159 16.6362 79.8934 18.3927 80.7982 20.4153C81.7563 22.4379 82.2353 24.7 82.2353 27.2017V28.4791C82.2353 30.2356 81.9692 31.7792 81.4369 33.1099C80.9047 34.3873 80.2127 35.4785 79.3611 36.3833C78.5095 37.2349 77.5514 37.9003 76.4869 38.3793C75.4223 38.8583 74.3578 39.1777 73.2932 39.3374C74.3578 39.4971 75.4223 39.843 76.4869 40.3753C77.5514 40.8544 78.5095 41.5463 79.3611 42.4512C80.2127 43.3028 80.9047 44.3407 81.4369 45.5649C81.9692 46.7891 82.2353 48.1996 82.2353 49.7964V50.8344C82.2353 53.2828 81.7563 55.5716 80.7982 57.7006C79.8934 59.7765 78.6159 61.5862 76.9659 63.1298C75.3691 64.6733 73.4795 65.8709 71.2972 66.7226C69.1682 67.5742 66.8528 68 64.3512 68H24.1916C21.5834 68 19.2415 67.8403 17.1656 67.521C15.143 67.2016 13.3067 66.7758 11.6567 66.2435C10.0066 65.7112 8.54289 65.0725 7.26545 64.3274C6.04124 63.529 4.95009 62.7039 3.99201 61.8523V50.4352C5.00332 51.2336 6.12108 52.032 7.34529 52.8304C8.62273 53.5755 10.0599 54.2409 11.6567 54.8264C13.3067 55.4119 15.143 55.8909 17.1656 56.2635C19.2415 56.5829 21.5834 56.7425 24.1916 56.7425H62.9939C64.5907 56.7425 65.9213 56.4232 66.9859 55.7845C68.1036 55.1457 68.9553 54.3473 69.5408 53.3893C70.1795 52.4312 70.4988 51.3933 70.4988 50.2755C70.5521 49.1577 70.3125 48.1198 69.7803 47.1617C69.3012 46.2036 68.4762 45.4052 67.3052 44.7665C66.1875 44.1278 64.7504 43.8084 62.9939 43.8084H29.3013V34.6268H62.9939C65.7617 34.6268 67.7843 33.9615 69.0617 32.6308C70.3392 31.3002 70.9513 29.8364 70.898 28.2396C70.8448 26.5896 70.1263 25.0992 68.7424 23.7686C67.4117 22.4379 65.4689 21.7726 62.914 21.7726H24.0319C19.0286 21.7726 14.9301 22.1451 11.7365 22.8903C8.54289 23.6355 5.9614 24.9662 3.99201 26.8823V15.9442ZM93.0387 68V57.7805H106.612V68H93.0387ZM174.541 68H134.461C132.013 68 129.698 67.5476 127.515 66.6427C125.386 65.6846 123.497 64.4072 121.847 62.8104C120.25 61.1604 118.972 59.2708 118.014 57.1417C117.109 54.9594 116.657 52.6441 116.657 50.1956V28.3195C116.657 25.871 117.109 23.5823 118.014 21.4532C118.972 19.2709 120.25 17.3814 121.847 15.7845C123.497 14.1345 125.386 12.8571 127.515 11.9522C129.698 10.9941 132.013 10.5151 134.461 10.5151H174.541C176.99 10.5151 179.278 10.9941 181.407 11.9522C183.59 12.8571 185.479 14.1345 187.076 15.7845C188.726 17.3814 190.004 19.2709 190.908 21.4532C191.866 23.5823 192.345 25.871 192.345 28.3195V50.1956C192.345 52.6441 191.866 54.9594 190.908 57.1417C190.004 59.2708 188.726 61.1604 187.076 62.8104C185.479 64.4072 183.59 65.6846 181.407 66.6427C179.278 67.5476 176.99 68 174.541 68ZM141.168 56.7425L158.254 21.7726H138.533C137.043 21.7726 135.632 22.0387 134.302 22.571C133.024 23.1032 131.907 23.8484 130.948 24.8065C129.99 25.7646 129.245 26.8823 128.713 28.1598C128.181 29.4372 127.915 30.8211 127.915 32.3115V46.2036C127.915 47.694 128.181 49.0779 128.713 50.3553C129.245 51.6328 129.99 52.7505 130.948 53.7086C131.907 54.6667 133.024 55.4119 134.302 55.9441C135.579 56.4764 136.963 56.7425 138.453 56.7425H141.168ZM181.088 46.2036V32.6308C181.088 31.0872 180.795 29.6767 180.21 28.3993C179.678 27.0686 178.906 25.9242 177.894 24.9662C176.936 23.9549 175.792 23.1831 174.461 22.6508C173.184 22.0653 171.773 21.7726 170.23 21.7726H167.835L150.749 56.7425H170.549C172.039 56.7425 173.423 56.4764 174.701 55.9441C175.978 55.4119 177.096 54.6667 178.054 53.7086C179.012 52.7505 179.757 51.6328 180.29 50.3553C180.822 49.0779 181.088 47.694 181.088 46.2036Z" fill="white"/>
</g>
<g style="mix-blend-mode:soft-light">
<path d="M3.99201 15.9442C5.9614 13.7619 8.54289 12.3248 11.7365 11.6329C14.9301 10.8877 19.0286 10.5151 24.0319 10.5151H64.3512C66.8528 10.5151 69.1682 10.9143 71.2972 11.7127C73.4795 12.5111 75.3691 13.6555 76.9659 15.1458C78.6159 16.6362 79.8934 18.3927 80.7982 20.4153C81.7563 22.4379 82.2353 24.7 82.2353 27.2017V28.4791C82.2353 30.2356 81.9692 31.7792 81.4369 33.1099C80.9047 34.3873 80.2127 35.4785 79.3611 36.3833C78.5095 37.2349 77.5514 37.9003 76.4869 38.3793C75.4223 38.8583 74.3578 39.1777 73.2932 39.3374C74.3578 39.4971 75.4223 39.843 76.4869 40.3753C77.5514 40.8544 78.5095 41.5463 79.3611 42.4512C80.2127 43.3028 80.9047 44.3407 81.4369 45.5649C81.9692 46.7891 82.2353 48.1996 82.2353 49.7964V50.8344C82.2353 53.2828 81.7563 55.5716 80.7982 57.7006C79.8934 59.7765 78.6159 61.5862 76.9659 63.1298C75.3691 64.6733 73.4795 65.8709 71.2972 66.7226C69.1682 67.5742 66.8528 68 64.3512 68H24.1916C21.5834 68 19.2415 67.8403 17.1656 67.521C15.143 67.2016 13.3067 66.7758 11.6567 66.2435C10.0066 65.7112 8.54289 65.0725 7.26545 64.3274C6.04124 63.529 4.95009 62.7039 3.99201 61.8523V50.4352C5.00332 51.2336 6.12108 52.032 7.34529 52.8304C8.62273 53.5755 10.0599 54.2409 11.6567 54.8264C13.3067 55.4119 15.143 55.8909 17.1656 56.2635C19.2415 56.5829 21.5834 56.7425 24.1916 56.7425H62.9939C64.5907 56.7425 65.9213 56.4232 66.9859 55.7845C68.1036 55.1457 68.9553 54.3473 69.5408 53.3893C70.1795 52.4312 70.4988 51.3933 70.4988 50.2755C70.5521 49.1577 70.3125 48.1198 69.7803 47.1617C69.3012 46.2036 68.4762 45.4052 67.3052 44.7665C66.1875 44.1278 64.7504 43.8084 62.9939 43.8084H29.3013V34.6268H62.9939C65.7617 34.6268 67.7843 33.9615 69.0617 32.6308C70.3392 31.3002 70.9513 29.8364 70.898 28.2396C70.8448 26.5896 70.1263 25.0992 68.7424 23.7686C67.4117 22.4379 65.4689 21.7726 62.914 21.7726H24.0319C19.0286 21.7726 14.9301 22.1451 11.7365 22.8903C8.54289 23.6355 5.9614 24.9662 3.99201 26.8823V15.9442ZM93.0387 68V57.7805H106.612V68H93.0387ZM174.541 68H134.461C132.013 68 129.698 67.5476 127.515 66.6427C125.386 65.6846 123.497 64.4072 121.847 62.8104C120.25 61.1604 118.972 59.2708 118.014 57.1417C117.109 54.9594 116.657 52.6441 116.657 50.1956V28.3195C116.657 25.871 117.109 23.5823 118.014 21.4532C118.972 19.2709 120.25 17.3814 121.847 15.7845C123.497 14.1345 125.386 12.8571 127.515 11.9522C129.698 10.9941 132.013 10.5151 134.461 10.5151H174.541C176.99 10.5151 179.278 10.9941 181.407 11.9522C183.59 12.8571 185.479 14.1345 187.076 15.7845C188.726 17.3814 190.004 19.2709 190.908 21.4532C191.866 23.5823 192.345 25.871 192.345 28.3195V50.1956C192.345 52.6441 191.866 54.9594 190.908 57.1417C190.004 59.2708 188.726 61.1604 187.076 62.8104C185.479 64.4072 183.59 65.6846 181.407 66.6427C179.278 67.5476 176.99 68 174.541 68ZM141.168 56.7425L158.254 21.7726H138.533C137.043 21.7726 135.632 22.0387 134.302 22.571C133.024 23.1032 131.907 23.8484 130.948 24.8065C129.99 25.7646 129.245 26.8823 128.713 28.1598C128.181 29.4372 127.915 30.8211 127.915 32.3115V46.2036C127.915 47.694 128.181 49.0779 128.713 50.3553C129.245 51.6328 129.99 52.7505 130.948 53.7086C131.907 54.6667 133.024 55.4119 134.302 55.9441C135.579 56.4764 136.963 56.7425 138.453 56.7425H141.168ZM181.088 46.2036V32.6308C181.088 31.0872 180.795 29.6767 180.21 28.3993C179.678 27.0686 178.906 25.9242 177.894 24.9662C176.936 23.9549 175.792 23.1831 174.461 22.6508C173.184 22.0653 171.773 21.7726 170.23 21.7726H167.835L150.749 56.7425H170.549C172.039 56.7425 173.423 56.4764 174.701 55.9441C175.978 55.4119 177.096 54.6667 178.054 53.7086C179.012 52.7505 179.757 51.6328 180.29 50.3553C180.822 49.0779 181.088 47.694 181.088 46.2036Z" fill="white"/>
</g>
</svg>
