<svg width="86" height="24" viewBox="0 0 86 24" fill="none" xmlns="http://www.w3.org/2000/svg">
<path d="M84.4235 13.5C85.2519 13.5 85.9235 12.8284 85.9235 12C85.9235 11.1716 85.2519 10.5 84.4235 10.5V13.5ZM0.938546 10.9393C0.35276 11.5251 0.35276 12.4749 0.938546 13.0607L10.4845 22.6066C11.0703 23.1924 12.02 23.1924 12.6058 22.6066C13.1916 22.0208 13.1916 21.0711 12.6058 20.4853L4.12053 12L12.6058 3.51472C13.1916 2.92893 13.1916 1.97918 12.6058 1.3934C12.02 0.807612 11.0703 0.807612 10.4845 1.3934L0.938546 10.9393ZM84.4235 10.5L1.99921 10.5V13.5L84.4235 13.5V10.5Z" fill="#FAA41A"/>
</svg>
