<svg width="86" height="23" viewBox="0 0 86 23" fill="none" xmlns="http://www.w3.org/2000/svg">
<path d="M1.70404 9.58801C0.875613 9.58801 0.204041 10.2596 0.204041 11.088C0.204041 11.9164 0.875613 12.588 1.70404 12.588V9.58801ZM85.189 12.1487C85.7747 11.5629 85.7747 10.6131 85.189 10.0274L75.643 0.481411C75.0572 -0.104375 74.1075 -0.104375 73.5217 0.481411C72.9359 1.0672 72.9359 2.01694 73.5217 2.60273L82.007 11.088L73.5217 19.5733C72.9359 20.1591 72.9359 21.1088 73.5217 21.6946C74.1075 22.2804 75.0572 22.2804 75.643 21.6946L85.189 12.1487ZM1.70404 12.588H84.1283V9.58801H1.70404V12.588Z" fill="#FAA41A"/>
</svg>
