<svg width="24" height="44" viewBox="0 0 24 44" fill="none" xmlns="http://www.w3.org/2000/svg">
<path d="M13.5 2C13.5 1.17157 12.8284 0.5 12 0.5C11.1716 0.5 10.5 1.17157 10.5 2H13.5ZM10.9393 43.5165C11.5251 44.1023 12.4749 44.1023 13.0607 43.5165L22.6066 33.9706C23.1924 33.3848 23.1924 32.435 22.6066 31.8492C22.0208 31.2635 21.0711 31.2635 20.4853 31.8492L12 40.3345L3.51472 31.8492C2.92893 31.2635 1.97918 31.2635 1.3934 31.8492C0.807612 32.435 0.807612 33.3848 1.3934 33.9706L10.9393 43.5165ZM10.5 2V42.4558H13.5V2H10.5Z" fill="#FAA41A"/>
</svg>
