<svg width="116" height="142" viewBox="0 0 116 142" fill="none" xmlns="http://www.w3.org/2000/svg">
<path d="M115.5 2C115.5 1.17157 114.828 0.5 114 0.5C113.172 0.5 112.5 1.17157 112.5 2H115.5ZM0.93934 128.939C0.353553 129.525 0.353553 130.475 0.93934 131.061L10.4853 140.607C11.0711 141.192 12.0208 141.192 12.6066 140.607C13.1924 140.021 13.1924 139.071 12.6066 138.485L4.12132 130L12.6066 121.515C13.1924 120.929 13.1924 119.979 12.6066 119.393C12.0208 118.808 11.0711 118.808 10.4853 119.393L0.93934 128.939ZM112.5 2V106H115.5V2H112.5ZM90 128.5H2V131.5H90V128.5ZM112.5 106C112.5 118.426 102.426 128.5 90 128.5V131.5C104.083 131.5 115.5 120.083 115.5 106H112.5Z" fill="#FAA41A"/>
</svg>
