<svg width="155" height="59" viewBox="0 0 155 59" fill="none" xmlns="http://www.w3.org/2000/svg">
<path fill-rule="evenodd" clip-rule="evenodd" d="M39.117 2.7276C35.9512 1.5339 32.5209 0.880859 28.9382 0.880859C12.9819 0.880859 0.046875 13.8345 0.046875 29.8136C0.046875 35.642 1.76777 41.0678 4.72846 45.6094L7.06898 42.9256C4.81461 39.0879 3.51979 34.6043 3.51979 29.8142C3.51979 15.6355 14.8645 4.14141 28.8589 4.14141C31.6218 4.14141 34.2815 4.58945 36.771 5.41772L39.117 2.7276ZM34.9932 7.45626C33.0688 6.88949 31.0375 6.58611 28.9377 6.58611C16.7307 6.58611 6.83506 16.8396 6.83506 29.4878C6.83506 33.3723 7.76841 37.0309 9.41544 40.2359L11.453 37.8995C10.3133 35.3913 9.67716 32.5966 9.67716 29.6504C9.67716 18.8026 18.3006 10.0087 28.938 10.0087C30.1475 10.0087 31.3309 10.1224 32.4785 10.3398L34.9932 7.45626ZM46.6366 21.8886L48.7935 19.4154C50.2324 22.4551 51.0404 25.8738 51.0404 29.4878C51.0404 42.1361 41.1447 52.3895 28.9377 52.3895C27.1068 52.3895 25.3279 52.1588 23.6265 51.7241L25.952 49.0575C26.9251 49.2119 27.9225 49.2921 28.938 49.2921C39.5756 49.2921 48.1989 40.4982 48.1989 29.6504C48.1989 26.8936 47.642 24.2695 46.6366 21.8886ZM50.852 17.055L53.2979 14.2503C56.1667 18.7441 57.8295 24.0844 57.8295 29.8136C57.8295 45.7928 44.8944 58.7464 28.9382 58.7464C25.4558 58.7464 22.1173 58.1294 19.0258 56.9986L21.3449 54.3394C23.719 55.0852 26.2427 55.487 28.8589 55.487C42.8533 55.487 54.198 43.9929 54.198 29.8142C54.198 25.1699 52.9808 20.8136 50.852 17.055Z" fill="#FAA41A"/>
<path d="M41.41 5.11872C41.41 4.30851 42.0659 3.6517 42.8749 3.6517H54.3118C55.1208 3.6517 55.7767 4.30851 55.7767 5.11872C55.7767 5.92893 55.1208 6.58573 54.3118 6.58573H42.8749C42.0659 6.58573 41.41 5.92893 41.41 5.11872Z" fill="#FAA41A"/>
<path d="M36.2009 10.6612C36.2009 9.85102 36.8567 9.19421 37.6658 9.19421H50.3657C51.1748 9.19421 51.8306 9.85102 51.8306 10.6612C51.8306 11.4715 51.1748 12.1282 50.3657 12.1282H37.6658C36.8567 12.1282 36.2009 11.4715 36.2009 10.6612Z" fill="#FAA41A"/>
<path d="M31.1483 16.2024C31.1483 15.3922 31.8041 14.7354 32.6132 14.7354H46.2603C47.0694 14.7354 47.7253 15.3922 47.7253 16.2024C47.7253 17.0127 47.0694 17.6694 46.2603 17.6694H32.6132C31.8041 17.6694 31.1483 17.0127 31.1483 16.2024Z" fill="#FAA41A"/>
<path d="M26.728 21.745C26.728 20.9347 27.3839 20.2779 28.193 20.2779H41.8401C42.6492 20.2779 43.305 20.9347 43.305 21.745C43.305 22.5552 42.6492 23.212 41.8401 23.212H28.193C27.3839 23.212 26.728 22.5552 26.728 21.745Z" fill="#FAA41A"/>
<path d="M22.4651 27.2874C22.4651 26.4772 23.1209 25.8204 23.9301 25.8204H38.0508C38.8599 25.8204 39.5157 26.4772 39.5157 27.2874C39.5157 28.0977 38.8599 28.7545 38.0508 28.7545H23.9301C23.1209 28.7545 22.4651 28.0977 22.4651 27.2874Z" fill="#FAA41A"/>
<path d="M18.2025 32.8287C18.2025 32.0185 18.8584 31.3617 19.6674 31.3617H33.7882C34.5973 31.3617 35.2531 32.0185 35.2531 32.8287C35.2531 33.6389 34.5973 34.2957 33.7882 34.2957H19.6674C18.8584 34.2957 18.2025 33.6389 18.2025 32.8287Z" fill="#FAA41A"/>
<path d="M13.9401 38.3716C13.9401 37.5613 14.5959 36.9046 15.405 36.9046H29.5258C30.3348 36.9046 30.9907 37.5613 30.9907 38.3716C30.9907 39.1818 30.3348 39.8386 29.5258 39.8386H15.405C14.5959 39.8386 13.9401 39.1818 13.9401 38.3716Z" fill="#FAA41A"/>
<path d="M9.67716 43.9129C9.67716 43.1027 10.333 42.4459 11.1421 42.4459H25.2628C26.0719 42.4459 26.7277 43.1027 26.7277 43.9129C26.7277 44.7231 26.0719 45.3799 25.2628 45.3799H11.1421C10.333 45.3799 9.67716 44.7231 9.67716 43.9129Z" fill="#FAA41A"/>
<path d="M6.51996 49.4554C6.51996 48.6452 7.17583 47.9884 7.9849 47.9884H18.3167C19.1257 47.9884 19.7816 48.6452 19.7816 49.4554C19.7816 50.2656 19.1257 50.9224 18.3167 50.9224H7.9849C7.17582 50.9224 6.51996 50.2656 6.51996 49.4554Z" fill="#FAA41A"/>
<path d="M154.239 37.1236L152.434 37.3209C152.383 37.1383 152.293 36.9665 152.165 36.8058C152.041 36.6451 151.873 36.5154 151.662 36.4167C151.45 36.3181 151.192 36.2688 150.885 36.2688C150.473 36.2688 150.126 36.3583 149.846 36.5373C149.568 36.7163 149.431 36.9483 149.435 37.2332C149.431 37.478 149.521 37.6771 149.703 37.8305C149.89 37.9839 150.195 38.1099 150.622 38.2086L152.056 38.5155C152.851 38.6872 153.442 38.9593 153.829 39.332C154.219 39.7046 154.416 40.1922 154.42 40.7951C154.416 41.3247 154.261 41.7923 153.955 42.1978C153.652 42.5997 153.231 42.9139 152.691 43.1403C152.151 43.3668 151.531 43.4801 150.83 43.4801C149.802 43.4801 148.974 43.2645 148.346 42.8335C147.719 42.3988 147.345 41.7941 147.225 41.0197L149.156 40.8334C149.243 41.2133 149.43 41.5001 149.714 41.6937C149.999 41.8873 150.369 41.9841 150.825 41.9841C151.296 41.9841 151.673 41.8873 151.957 41.6937C152.246 41.5001 152.39 41.2608 152.39 40.9758C152.39 40.7347 152.297 40.5357 152.111 40.3786C151.928 40.2215 151.644 40.1009 151.257 40.0169L149.823 39.7155C149.017 39.5475 148.421 39.2644 148.034 38.8662C147.648 38.4643 147.456 37.9566 147.46 37.3428C147.456 36.8241 147.597 36.3747 147.881 35.9948C148.169 35.6112 148.569 35.3153 149.079 35.1071C149.594 34.8952 150.186 34.7893 150.858 34.7893C151.843 34.7893 152.618 34.9993 153.183 35.4194C153.753 35.8395 154.105 36.4076 154.239 37.1236Z" fill="white"/>
<path d="M143.262 43.4801C142.419 43.4801 141.692 43.3047 141.079 42.9541C140.469 42.5997 140.001 42.0992 139.673 41.4526C139.345 40.8023 139.181 40.037 139.181 39.1566C139.181 38.2908 139.345 37.531 139.673 36.877C140.005 36.2195 140.468 35.7081 141.063 35.3427C141.657 34.9738 142.355 34.7893 143.158 34.7893C143.676 34.7893 144.165 34.8733 144.624 35.0414C145.088 35.2057 145.497 35.4615 145.85 35.8085C146.208 36.1555 146.489 36.5976 146.693 37.1346C146.897 37.6679 147 38.3036 147 39.0415V39.6498H140.11V38.3127H145.101C145.097 37.9328 145.015 37.5949 144.855 37.299C144.694 36.9995 144.47 36.7638 144.181 36.5921C143.897 36.4204 143.565 36.3345 143.185 36.3345C142.781 36.3345 142.425 36.4332 142.118 36.6304C141.812 36.8241 141.573 37.0798 141.402 37.3976C141.234 37.7118 141.148 38.057 141.144 38.4333V39.6005C141.144 40.0899 141.234 40.51 141.412 40.8608C141.591 41.2078 141.842 41.4745 142.162 41.6608C142.483 41.8435 142.859 41.9348 143.289 41.9348C143.577 41.9348 143.839 41.8946 144.072 41.8143C144.305 41.7302 144.508 41.6079 144.679 41.4471C144.851 41.2864 144.98 41.0873 145.068 40.8498L146.917 41.0581C146.801 41.5475 146.578 41.975 146.25 42.3403C145.925 42.702 145.51 42.9832 145.002 43.1842C144.495 43.3814 143.915 43.4801 143.262 43.4801Z" fill="white"/>
<path d="M136.603 43.3156V34.8989H138.583V43.3156H136.603ZM137.598 33.7043C137.284 33.7043 137.015 33.6001 136.788 33.3919C136.562 33.18 136.449 32.9261 136.449 32.6302C136.449 32.3307 136.562 32.0768 136.788 31.8686C137.015 31.6567 137.284 31.5508 137.598 31.5508C137.915 31.5508 138.185 31.6567 138.408 31.8686C138.634 32.0768 138.748 32.3307 138.748 32.6302C138.748 32.9261 138.634 33.18 138.408 33.3919C138.185 33.6001 137.915 33.7043 137.598 33.7043Z" fill="white"/>
<path d="M131.706 46.6473C130.994 46.6473 130.383 46.5505 129.873 46.3569C129.362 46.167 128.951 45.9112 128.642 45.5898C128.331 45.2683 128.116 44.9121 127.995 44.5212L129.78 44.0883C129.86 44.2527 129.976 44.4153 130.129 44.576C130.283 44.7404 130.489 44.8756 130.748 44.9815C131.011 45.0911 131.341 45.1459 131.738 45.1459C132.301 45.1459 132.765 45.0089 133.133 44.7349C133.502 44.4646 133.687 44.0189 133.687 43.3978V41.8033H133.588C133.485 42.0078 133.336 42.2179 133.14 42.4334C132.946 42.649 132.689 42.8298 132.368 42.976C132.05 43.1221 131.651 43.1952 131.17 43.1952C130.524 43.1952 129.938 43.0435 129.413 42.7403C128.891 42.4334 128.475 41.9768 128.166 41.3704C127.859 40.7603 127.706 39.9968 127.706 39.0799C127.706 38.1556 127.859 37.3757 128.166 36.7401C128.475 36.1008 128.893 35.6167 129.418 35.2879C129.944 34.9555 130.529 34.7893 131.175 34.7893C131.667 34.7893 132.072 34.8733 132.39 35.0414C132.71 35.2057 132.966 35.4048 133.156 35.6386C133.345 35.8688 133.489 36.0861 133.588 36.2907H133.697V34.8989H135.651V43.4527C135.651 44.1723 135.479 44.7678 135.137 45.239C134.794 45.7103 134.324 46.0628 133.73 46.2966C133.136 46.5305 132.461 46.6473 131.706 46.6473ZM131.722 41.6389C132.142 41.6389 132.499 41.5366 132.794 41.332C133.09 41.1274 133.314 40.8334 133.468 40.4498C133.621 40.0662 133.697 39.606 133.697 39.0689C133.697 38.5392 133.621 38.0753 133.468 37.6771C133.318 37.2789 133.096 36.9702 132.8 36.751C132.508 36.5282 132.149 36.4167 131.722 36.4167C131.28 36.4167 130.912 36.5318 130.616 36.762C130.321 36.9921 130.099 37.3081 129.949 37.71C129.8 38.1082 129.725 38.5611 129.725 39.0689C129.725 39.584 129.8 40.0352 129.949 40.4224C130.102 40.806 130.327 41.1055 130.623 41.3211C130.921 41.533 131.288 41.6389 131.722 41.6389Z" fill="white"/>
<path d="M123.421 43.4801C122.6 43.4801 121.888 43.2992 121.286 42.9376C120.685 42.5759 120.218 42.0699 119.886 41.4197C119.558 40.7694 119.393 40.0096 119.393 39.1402C119.393 38.2707 119.558 37.5091 119.886 36.8551C120.218 36.2012 120.685 35.6934 121.286 35.3318C121.888 34.9701 122.6 34.7893 123.421 34.7893C124.241 34.7893 124.953 34.9701 125.555 35.3318C126.156 35.6934 126.622 36.2012 126.95 36.8551C127.282 37.5091 127.448 38.2707 127.448 39.1402C127.448 40.0096 127.282 40.7694 126.95 41.4197C126.622 42.0699 126.156 42.5759 125.555 42.9376C124.953 43.2992 124.241 43.4801 123.421 43.4801ZM123.431 41.8909C123.877 41.8909 124.249 41.7686 124.548 41.5238C124.847 41.2754 125.069 40.943 125.216 40.5266C125.365 40.1101 125.44 39.6461 125.44 39.1347C125.44 38.6196 125.365 38.1538 125.216 37.7374C125.069 37.3172 124.847 36.9829 124.548 36.7346C124.249 36.4861 123.877 36.3619 123.431 36.3619C122.975 36.3619 122.596 36.4861 122.293 36.7346C121.994 36.9829 121.769 37.3172 121.62 37.7374C121.474 38.1538 121.401 38.6196 121.401 39.1347C121.401 39.6461 121.474 40.1101 121.62 40.5266C121.769 40.943 121.994 41.2754 122.293 41.5238C122.596 41.7686 122.975 41.8909 123.431 41.8909Z" fill="white"/>
<path d="M118.796 32.0932V43.3156H116.816V32.0932H118.796Z" fill="white"/>
<path d="M112.185 43.4801C111.365 43.4801 110.654 43.2992 110.051 42.9376C109.449 42.5759 108.983 42.0699 108.651 41.4197C108.322 40.7694 108.158 40.0096 108.158 39.1402C108.158 38.2707 108.322 37.5091 108.651 36.8551C108.983 36.2012 109.449 35.6934 110.051 35.3318C110.654 34.9701 111.365 34.7893 112.185 34.7893C113.007 34.7893 113.718 34.9701 114.319 35.3318C114.921 35.6934 115.386 36.2012 115.715 36.8551C116.047 37.5091 116.212 38.2707 116.212 39.1402C116.212 40.0096 116.047 40.7694 115.715 41.4197C115.386 42.0699 114.921 42.5759 114.319 42.9376C113.718 43.2992 113.007 43.4801 112.185 43.4801ZM112.196 41.8909C112.641 41.8909 113.013 41.7686 113.312 41.5238C113.612 41.2754 113.834 40.943 113.98 40.5266C114.13 40.1101 114.205 39.6461 114.205 39.1347C114.205 38.6196 114.13 38.1538 113.98 37.7374C113.834 37.3172 113.612 36.9829 113.312 36.7346C113.013 36.4861 112.641 36.3619 112.196 36.3619C111.741 36.3619 111.361 36.4861 111.058 36.7346C110.759 36.9829 110.535 37.3172 110.386 37.7374C110.239 38.1538 110.166 38.6196 110.166 39.1347C110.166 39.6461 110.239 40.1101 110.386 40.5266C110.535 40.943 110.759 41.2754 111.058 41.5238C111.361 41.7686 111.741 41.8909 112.196 41.8909Z" fill="white"/>
<path d="M102.189 38.384V43.3157H100.208V34.8989H102.101V36.3291H102.2C102.393 35.8578 102.701 35.4834 103.125 35.2057C103.552 34.9281 104.079 34.7893 104.706 34.7893C105.286 34.7893 105.791 34.9135 106.222 35.1619C106.656 35.4103 106.992 35.7702 107.228 36.2414C107.469 36.7127 107.588 37.2844 107.584 37.9566V43.3157H105.603V38.2634C105.603 37.7008 105.458 37.2606 105.166 36.9428C104.878 36.625 104.478 36.4661 103.967 36.4661C103.621 36.4661 103.312 36.5428 103.042 36.6962C102.776 36.846 102.566 37.0633 102.413 37.3483C102.264 37.6333 102.189 37.9785 102.189 38.384Z" fill="white"/>
<path d="M93.8181 38.3839V43.3156H91.8373V32.0932H93.7742V36.329H93.8728C94.0692 35.8541 94.3743 35.4797 94.7865 35.2057C95.2025 34.928 95.7311 34.7892 96.3728 34.7892C96.9568 34.7892 97.4653 34.9116 97.8998 35.1564C98.3336 35.4011 98.6695 35.7591 98.9068 36.2304C99.1472 36.7016 99.2681 37.277 99.2681 37.9565V43.3156H97.2866V38.2634C97.2866 37.6972 97.141 37.2569 96.849 36.9427C96.5608 36.625 96.1563 36.466 95.6348 36.466C95.2842 36.466 94.9706 36.5427 94.6933 36.6962C94.4198 36.8459 94.2048 37.0633 94.0477 37.3483C93.8944 37.6332 93.8181 37.9784 93.8181 38.3839Z" fill="white"/>
<path d="M87.6885 43.4801C86.8495 43.4801 86.1291 43.2956 85.5274 42.9266C84.9288 42.5576 84.4673 42.048 84.143 41.3978C83.8217 40.7439 83.6614 39.9913 83.6614 39.1402C83.6614 38.2853 83.8255 37.531 84.1537 36.877C84.4819 36.2195 84.945 35.7081 85.5436 35.3427C86.1453 34.9738 86.8572 34.7893 87.6777 34.7893C88.3595 34.7893 88.9636 34.9153 89.489 35.1674C90.0175 35.4158 90.4389 35.7683 90.7525 36.225C91.0668 36.678 91.2456 37.2076 91.2887 37.8141H89.3958C89.3195 37.4086 89.1369 37.0707 88.8488 36.8003C88.5637 36.5263 88.1831 36.3893 87.7047 36.3893C87.3002 36.3893 86.9443 36.499 86.6376 36.7182C86.3318 36.9336 86.0929 37.2442 85.9211 37.6497C85.7532 38.0552 85.6692 38.5411 85.6692 39.1073C85.6692 39.6808 85.7532 40.174 85.9211 40.5868C86.0891 40.996 86.3241 41.3119 86.6268 41.5348C86.9335 41.754 87.2925 41.8636 87.7047 41.8636C87.9967 41.8636 88.2578 41.8088 88.4874 41.6991C88.7209 41.586 88.9158 41.4234 89.073 41.2115C89.2301 40.9996 89.3372 40.742 89.3958 40.4388H91.2887C91.2417 41.0343 91.0668 41.5622 90.7641 42.0225C90.4613 42.4791 90.0491 42.8371 89.5268 43.0965C89.0052 43.3522 88.3927 43.4801 87.6885 43.4801Z" fill="white"/>
<path d="M79.6883 43.4801C78.8454 43.4801 78.1174 43.3047 77.5049 42.9541C76.8955 42.5997 76.4267 42.0992 76.0984 41.4526C75.7701 40.8023 75.6059 40.037 75.6059 39.1566C75.6059 38.2908 75.7701 37.531 76.0984 36.877C76.4304 36.2195 76.8936 35.7081 77.4879 35.3427C78.0827 34.9738 78.7815 34.7893 79.5843 34.7893C80.102 34.7893 80.5905 34.8733 81.0504 35.0414C81.5135 35.2057 81.9226 35.4615 82.2762 35.8085C82.6337 36.1555 82.9149 36.5976 83.119 37.1346C83.3232 37.6679 83.4249 38.3036 83.4249 39.0415V39.6498H76.5361V38.3127H81.5266C81.5227 37.9328 81.441 37.5949 81.28 37.299C81.1198 36.9995 80.8956 36.7638 80.6074 36.5921C80.3224 36.4204 79.9911 36.3345 79.6112 36.3345C79.2068 36.3345 78.8508 36.4332 78.5442 36.6304C78.2376 36.8241 77.9987 37.0798 77.8277 37.3976C77.6597 37.7118 77.5742 38.057 77.5704 38.4333V39.6005C77.5704 40.0899 77.6597 40.51 77.8385 40.8608C78.0172 41.2078 78.2668 41.4745 78.5881 41.6608C78.9094 41.8435 79.2846 41.9348 79.7153 41.9348C80.0034 41.9348 80.2646 41.8946 80.498 41.8143C80.7315 41.7302 80.9333 41.6079 81.1051 41.4471C81.2769 41.2864 81.4064 41.0873 81.4934 40.8498L83.3432 41.0581C83.2261 41.5475 83.0042 41.975 82.6753 42.3403C82.3509 42.702 81.9349 42.9832 81.4279 43.1842C80.921 43.3814 80.3409 43.4801 79.6883 43.4801Z" fill="white"/>
<path d="M67.6875 33.7974V32.0932H76.6285V33.7974H73.1649V43.3156H71.1512V33.7974H67.6875Z" fill="white"/>
<path d="M118.149 16.3818L119.845 19.4888L121.569 16.3818H123.665L121.131 20.5903L123.709 24.7986H121.624L119.845 21.7684L118.083 24.7986H115.982L118.543 20.5903L116.047 16.3818H118.149Z" fill="white"/>
<path d="M112.376 24.9631C111.533 24.9631 110.805 24.7877 110.192 24.4371C109.583 24.0827 109.114 23.5822 108.786 22.9356C108.458 22.2853 108.294 21.52 108.294 20.6396C108.294 19.7738 108.458 19.014 108.786 18.36C109.118 17.7025 109.581 17.1911 110.176 16.8258C110.771 16.4568 111.469 16.2723 112.272 16.2723C112.789 16.2723 113.279 16.3563 113.738 16.5244C114.201 16.6887 114.61 16.9445 114.963 17.2915C115.321 17.6386 115.602 18.0806 115.806 18.6176C116.01 19.1509 116.113 19.7866 116.113 20.5245V21.1328H109.224V19.7957H114.214C114.211 19.4158 114.128 19.0779 113.968 18.782C113.807 18.4825 113.583 18.2469 113.295 18.0751C113.01 17.9034 112.678 17.8176 112.299 17.8176C111.894 17.8176 111.538 17.9162 111.232 18.1135C110.926 18.3071 110.687 18.5628 110.515 18.8807C110.347 19.1948 110.261 19.54 110.258 19.9163V21.0835C110.258 21.573 110.347 21.9931 110.526 22.3438C110.704 22.6908 110.955 22.9575 111.275 23.1438C111.597 23.3265 111.973 23.4178 112.403 23.4178C112.691 23.4178 112.952 23.3777 113.185 23.2973C113.419 23.2133 113.621 23.0909 113.793 22.9301C113.964 22.7694 114.094 22.5703 114.181 22.3329L116.03 22.5411C115.914 23.0306 115.692 23.458 115.363 23.8233C115.038 24.185 114.623 24.4662 114.116 24.6672C113.608 24.8644 113.029 24.9631 112.376 24.9631Z" fill="white"/>
<path d="M107.609 13.5763V24.7986H105.803L100.523 17.1545H100.43V24.7986H98.3999V13.5763H100.217L105.491 21.2259H105.59V13.5763H107.609Z" fill="white"/>
<path d="M89.7602 27.955V16.3819H91.7086V17.7737H91.8234C91.9251 17.5691 92.0692 17.3518 92.2556 17.1216C92.4413 16.8879 92.6932 16.6887 93.0107 16.5244C93.3281 16.3563 93.7333 16.2723 94.2256 16.2723C94.8751 16.2723 95.4606 16.4385 95.9822 16.771C96.5069 17.0997 96.9229 17.5874 97.2296 18.234C97.5393 18.877 97.6949 19.666 97.6949 20.6013C97.6949 21.5255 97.5431 22.3109 97.2403 22.9575C96.9376 23.6041 96.5254 24.0973 96.0038 24.4371C95.4822 24.7768 94.8913 24.9467 94.231 24.9467C93.7495 24.9467 93.3496 24.8663 93.0322 24.7056C92.7156 24.5448 92.4598 24.3512 92.2664 24.1247C92.0769 23.8945 91.929 23.6772 91.8234 23.4727H91.741V27.955H89.7602ZM91.7032 20.5903C91.7032 21.1347 91.7795 21.6114 91.9328 22.0205C92.09 22.4297 92.3142 22.7493 92.6054 22.9795C92.9013 23.2059 93.2587 23.3192 93.6786 23.3192C94.1162 23.3192 94.483 23.2023 94.778 22.9685C95.0739 22.731 95.2958 22.4078 95.446 21.9985C95.5985 21.5858 95.6756 21.1164 95.6756 20.5903C95.6756 20.0679 95.6009 19.604 95.4514 19.1985C95.3019 18.7929 95.0793 18.4752 94.7834 18.245C94.4883 18.0148 94.1193 17.8997 93.6786 17.8997C93.2549 17.8997 92.8959 18.0112 92.6 18.234C92.3049 18.4569 92.0807 18.7692 91.9274 19.1711C91.778 19.5729 91.7032 20.046 91.7032 20.5903Z" fill="white"/>
<path d="M85.4257 24.9631C84.5836 24.9631 83.8556 24.7877 83.2423 24.4371C82.6337 24.0827 82.1645 23.5822 81.8363 22.9356C81.5081 22.2853 81.344 21.52 81.344 20.6396C81.344 19.7738 81.5081 19.014 81.8363 18.36C82.1683 17.7025 82.6314 17.1911 83.2261 16.8258C83.8209 16.4568 84.5197 16.2723 85.3217 16.2723C85.8402 16.2723 86.3287 16.3563 86.7886 16.5244C87.2517 16.6887 87.66 16.9445 88.0144 17.2915C88.3719 17.6386 88.6523 18.0806 88.8565 18.6176C89.0614 19.1509 89.1631 19.7866 89.1631 20.5245V21.1328H82.2739V19.7957H87.2647C87.2609 19.4158 87.1785 19.0779 87.0182 18.782C86.858 18.4825 86.6338 18.2469 86.3449 18.0751C86.0606 17.9034 85.7285 17.8176 85.3495 17.8176C84.9442 17.8176 84.589 17.9162 84.2824 18.1135C83.9758 18.3071 83.7369 18.5628 83.5659 18.8807C83.3979 19.1948 83.3117 19.54 83.3086 19.9163V21.0835C83.3086 21.573 83.3979 21.9931 83.5767 22.3438C83.7554 22.6908 84.005 22.9575 84.3263 23.1438C84.6468 23.3265 85.0228 23.4178 85.4535 23.4178C85.7416 23.4178 86.002 23.3777 86.2355 23.2973C86.4689 23.2133 86.6715 23.0909 86.8433 22.9301C87.0144 22.7694 87.1438 22.5703 87.2316 22.3329L89.0814 22.5411C88.9643 23.0306 88.7417 23.458 88.4135 23.8233C88.0891 24.185 87.6731 24.4662 87.1661 24.6672C86.6592 24.8644 86.079 24.9631 85.4257 24.9631Z" fill="white"/>
<path d="M81.2176 16.3818V17.9162H76.3857V16.3818H81.2176ZM77.5788 14.3653H79.5596V22.267C79.5596 22.5337 79.5997 22.7383 79.6798 22.8807C79.7638 23.0196 79.8732 23.1146 80.008 23.1657C80.1429 23.2168 80.2923 23.2424 80.4572 23.2424C80.5812 23.2424 80.6937 23.2332 80.7962 23.215C80.9017 23.1967 80.9819 23.1803 81.0366 23.1657L81.3709 24.7164C81.2646 24.7529 81.1136 24.7931 80.9164 24.837C80.723 24.8809 80.4857 24.9064 80.2053 24.9137C79.7091 24.9283 79.2622 24.8534 78.8647 24.6891C78.4672 24.521 78.1513 24.2616 77.9178 23.911C77.6882 23.5602 77.575 23.1218 77.5788 22.5958V14.3653Z" fill="white"/>
<path d="M74.2701 16.6613C74.219 16.1827 74.0038 15.8102 73.6244 15.5435C73.2487 15.2768 72.7598 15.1435 72.158 15.1435C71.7348 15.1435 71.3718 15.2074 71.0691 15.3352C70.7663 15.4631 70.5346 15.6367 70.3741 15.8558C70.2136 16.075 70.1315 16.3253 70.1279 16.6066C70.1279 16.8403 70.1808 17.0431 70.2866 17.2148C70.396 17.3864 70.5438 17.5326 70.7298 17.6532C70.9158 17.77 71.122 17.8686 71.3481 17.949C71.5743 18.0294 71.8023 18.097 72.0321 18.1518L73.0827 18.4148C73.5059 18.5134 73.9126 18.6468 74.3029 18.8149C74.6969 18.9829 75.0489 19.1948 75.359 19.4505C75.6727 19.7062 75.9208 20.0149 76.1031 20.3765C76.2855 20.7382 76.3767 21.162 76.3767 21.6478C76.3767 22.3054 76.2089 22.8844 75.8733 23.3849C75.5377 23.8817 75.0526 24.2708 74.4178 24.5521C73.7868 24.8297 73.0225 24.9685 72.1251 24.9685C71.2533 24.9685 70.4963 24.8333 69.8543 24.5631C69.2159 24.2927 68.7161 23.8982 68.355 23.3795C67.9976 22.8607 67.8042 22.2287 67.775 21.4835H69.7723C69.8014 21.8743 69.9218 22.1995 70.1334 22.4588C70.3449 22.7182 70.6204 22.9118 70.9596 23.0397C71.3025 23.1675 71.6856 23.2315 72.1087 23.2315C72.5501 23.2315 72.9367 23.1657 73.2687 23.0342C73.6043 22.899 73.867 22.7128 74.0566 22.4753C74.2464 22.2342 74.343 21.9529 74.3467 21.6314C74.343 21.3392 74.2573 21.0981 74.0895 20.9081C73.9217 20.7145 73.6864 20.5538 73.3837 20.4258C73.0845 20.2944 72.7343 20.1775 72.333 20.0752L71.0581 19.7464C70.1352 19.5089 69.4056 19.1491 68.8694 18.6669C68.3368 18.181 68.0705 17.5363 68.0705 16.7325C68.0705 16.0713 68.2493 15.4923 68.6067 14.9955C68.9678 14.4987 69.4585 14.1132 70.0787 13.8393C70.6988 13.5617 71.401 13.4228 72.1853 13.4228C72.9806 13.4228 73.6773 13.5617 74.2755 13.8393C74.8775 14.1132 75.3498 14.495 75.6927 14.9845C76.0357 15.4704 76.2126 16.0294 76.2235 16.6613H74.2701Z" fill="white"/>
<path fill-rule="evenodd" clip-rule="evenodd" d="M62.4521 11.6985V10.9109H63.2226V11.6985H62.4521ZM62.4521 16.4242V14.849H63.2226V16.4242H62.4521ZM62.4521 21.1498V19.5747H63.2226V21.1498H62.4521ZM62.4521 25.8755V24.3004H63.2226V25.8755H62.4521ZM62.4521 30.6012V29.026H63.2226V30.6012H62.4521ZM62.4521 35.3269V33.7517H63.2226V35.3269H62.4521ZM62.4521 40.0526V38.4774H63.2226V40.0526H62.4521ZM62.4521 44.7783V43.2031H63.2226V44.7783H62.4521ZM62.4521 48.7164V47.9288H63.2226V48.7164H62.4521Z" fill="white"/>
</svg>
